<svg xmlns="http://www.w3.org/2000/svg" viewBox="0 0 79.42 57.39"><title>fk-mini2</title><polygon points="1.09 55.15 37.46 52.02 37.46 56.4 41.96 56.4 41.96 52.02 78.34 55.27 74.96 12.4 69.25 11.92 4.71 11.92 1.09 55.15" fill="#fff" stroke="#2f96d9" stroke-miterlimit="10" stroke-width="1.98"/><path d="M40,49.36c-11.46-9.58-21-1.67-32.62-.5L11,7.28c11.17-2.67,17.5-11,29,.83C51.71-6.47,61,7.61,68.56,3L73,48.78C62.38,48.53,51,38.61,40,49.36Z" transform="translate(-0.29 -0.3)" fill="#fff" stroke="#2f96d9" stroke-miterlimit="10" stroke-width="1.98"/><line x1="39.71" y1="7.81" x2="39.71" y2="48.12" fill="#fff" stroke="#2f96d9" stroke-miterlimit="10" stroke-width="1.98"/><rect x="37.22" y="48.95" width="4.98" height="1.71" fill="#fff"/></svg>